<svg id="Capa_1" enable-background="new 0 0 509.999 509.999" height="512" viewBox="0 0 509.999 509.999" width="512" xmlns="http://www.w3.org/2000/svg"><path d="m264.285 251.532 179.961-17.24c4.5-.43 6.46-5.9 3.27-9.09l-30.57-30.57c-2.08-2.08-2.08-5.46 0-7.55l91.49-91.48c2.08-2.09 2.08-5.47 0-7.55l-43.24-43.24-43.25-43.25c-2.08-2.08-5.46-2.08-7.55 0l-91.48 91.49c-2.09 2.08-5.47 2.08-7.55 0l-30.57-30.57c-3.19-3.19-8.66-1.23-9.09 3.27l-17.24 179.961c-.16 1.67.46 3.2 1.54 4.28 1.079 1.079 2.609 1.699 4.279 1.539z" fill="#86e0be"/><path d="m264.288 251.532 179.961-17.24c4.5-.43 6.46-5.9 3.27-9.09l-30.57-30.57c-2.08-2.08-2.08-5.46 0-7.55l91.49-91.48c2.08-2.09 2.08-5.47 0-7.55l-43.24-43.24-205.191 205.181c1.08 1.079 2.61 1.699 4.28 1.539z" fill="#6ed4ac"/><path d="m419.548 460.111c-3.37 3.362-6.304 6.362-10.6 10.17-95.484 85.932-207.129 18.716-297.53-71.7-93.14-93.14-156.31-203.48-71.7-297.53 2.64-2.95 3.72-4.12 10.15-10.56 0 0 .02-.03.03-.03l104.1 104.11-10.38 10.38-15.25 15.24c-4.53 4.53-4.53 11.88 0 16.4l72.52 72.52 72.51 72.52c4.53 4.53 11.88 4.53 16.41 0l15.24-15.25 10.39-10.37z" fill="#ff3369"/><path d="m419.548 460.111c-3.37 3.362-6.304 6.362-10.6 10.17-95.484 85.932-207.129 18.716-297.53-71.7l89.47-89.47 72.51 72.52c4.53 4.53 11.88 4.53 16.41 0l15.24-15.25 10.39-10.37z" fill="#db2556"/><path d="m178.341 170.222-24.34 24.351-10.388 10.377-103.901-103.9c2.64-2.945 3.727-4.118 10.16-10.562 0 0 .011-.022.022-.022 4.444-4.466 11.431-11.442 23.253-23.264 9.258-9.258 20.7-7.769 27.382-1.087l77.811 77.811c7.303 7.302 7.205 19.091.001 26.296z" fill="#44446b"/><path d="m445.188 434.33c-.919 1.103.816-.687-25.644 25.785-3.36 3.351-6.207 6.261-10.594 10.171l-103.901-103.9 10.388-10.377 24.492-24.492c6.905-6.909 18.74-7.262 26.144.141l77.811 77.811c6.802 6.802 7.237 17.548 1.304 24.861z" fill="#35355e"/></svg>